<svg viewBox="0 0 380 262" fill="none" xmlns="http://www.w3.org/2000/svg">
<rect width="380" height="261" rx="5" fill="white"/>
<rect x="0.5" y="0.5" width="379" height="260" rx="4.5" stroke="black" stroke-opacity="0.15"/>
<mask id="path-3-inside-1_42_1483" fill="white">
<path d="M325 54.3857H379V95.7858H325V54.3857Z"/>
</mask>
<path d="M325 54.3857V53.3857H324V54.3857H325ZM325 95.7858H324V96.7858H325V95.7858ZM325 54.3857V55.3857H379V54.3857V53.3857H325V54.3857ZM379 95.7858V94.7858H325V95.7858V96.7858H379V95.7858ZM325 95.7858H326V54.3857H325H324V95.7858H325Z" fill="black" fill-opacity="0.05" mask="url(#path-3-inside-1_42_1483)"/>
<path d="M353.068 73.875V68.8047L349.482 73.875H353.068ZM353.092 77.8359V75.1016H348.186V73.7266L353.311 66.6172H354.498V73.875H356.146V75.1016H354.498V77.8359H353.092Z" fill="#283C46"/>
<rect x="271.5" y="54.8857" width="53" height="40.4" stroke="black" stroke-opacity="0.05"/>
<path d="M297.83 78.1406C296.507 78.1406 295.546 77.7786 294.947 77.0547C294.354 76.3255 294.057 75.4401 294.057 74.3984H295.525C295.588 75.1224 295.723 75.6484 295.932 75.9766C296.296 76.5651 296.955 76.8594 297.908 76.8594C298.648 76.8594 299.242 76.6615 299.689 76.2656C300.137 75.8698 300.361 75.3594 300.361 74.7344C300.361 73.9635 300.124 73.4245 299.65 73.1172C299.182 72.8099 298.528 72.6562 297.689 72.6562C297.596 72.6562 297.499 72.6589 297.4 72.6641C297.307 72.6641 297.21 72.6667 297.111 72.6719V71.4297C297.257 71.4453 297.38 71.4557 297.479 71.4609C297.577 71.4661 297.684 71.4688 297.799 71.4688C298.325 71.4688 298.757 71.3854 299.096 71.2188C299.689 70.9271 299.986 70.4062 299.986 69.6562C299.986 69.099 299.788 68.6693 299.393 68.3672C298.997 68.0651 298.536 67.9141 298.01 67.9141C297.072 67.9141 296.424 68.2266 296.064 68.8516C295.867 69.1953 295.755 69.6849 295.729 70.3203H294.338C294.338 69.487 294.505 68.7786 294.838 68.1953C295.411 67.1536 296.419 66.6328 297.861 66.6328C299.002 66.6328 299.885 66.888 300.51 67.3984C301.135 67.9036 301.447 68.638 301.447 69.6016C301.447 70.2891 301.262 70.8464 300.893 71.2734C300.663 71.5391 300.367 71.7474 300.002 71.8984C300.59 72.0599 301.049 72.3724 301.377 72.8359C301.71 73.2943 301.877 73.8568 301.877 74.5234C301.877 75.5911 301.525 76.4609 300.822 77.1328C300.119 77.8047 299.122 78.1406 297.83 78.1406Z" fill="#283C46"/>
<rect x="217.5" y="54.8857" width="53" height="40.4" stroke="black" stroke-opacity="0.05"/>
<path d="M240.342 77.8359C240.394 76.8724 240.592 76.0339 240.936 75.3203C241.285 74.6068 241.962 73.9583 242.967 73.375L244.467 72.5078C245.139 72.1172 245.611 71.7839 245.881 71.5078C246.308 71.0755 246.522 70.5807 246.522 70.0234C246.522 69.3724 246.327 68.8568 245.936 68.4766C245.545 68.0911 245.025 67.8984 244.374 67.8984C243.41 67.8984 242.743 68.263 242.374 68.9922C242.176 69.3828 242.066 69.9245 242.045 70.6172H240.616C240.631 69.6432 240.811 68.849 241.155 68.2344C241.764 67.151 242.84 66.6094 244.381 66.6094C245.663 66.6094 246.597 66.9557 247.186 67.6484C247.78 68.3411 248.077 69.112 248.077 69.9609C248.077 70.8568 247.762 71.6224 247.131 72.2578C246.767 72.6276 246.113 73.0755 245.17 73.6016L244.1 74.1953C243.59 74.4766 243.189 74.7448 242.897 75C242.376 75.4531 242.048 75.9557 241.913 76.5078H248.022V77.8359H240.342Z" fill="#283C46"/>
<rect x="163.5" y="54.8857" width="53" height="40.4" stroke="black" stroke-opacity="0.05"/>
<path d="M187.379 69.9141V68.8359C188.395 68.737 189.103 68.5729 189.504 68.3438C189.905 68.1094 190.204 67.5599 190.402 66.6953H191.512V77.8359H190.012V69.9141H187.379Z" fill="#283C46"/>
<rect x="109.5" y="54.8857" width="53" height="40.4" stroke="black" stroke-opacity="0.05"/>
<rect x="55.5" y="54.8857" width="53" height="40.4" stroke="black" stroke-opacity="0.05"/>
<mask id="path-17-inside-2_42_1483" fill="white">
<path d="M1 54.3857H55V95.7858H1V54.3857Z"/>
</mask>
<path d="M55 54.3857H56V53.3857H55V54.3857ZM55 95.7858V96.7858H56V95.7858H55ZM1 54.3857V55.3857H55V54.3857V53.3857H1V54.3857ZM55 54.3857H54V95.7858H55H56V54.3857H55ZM55 95.7858V94.7858H1V95.7858V96.7858H55V95.7858Z" fill="black" fill-opacity="0.05" mask="url(#path-17-inside-2_42_1483)"/>
<mask id="path-19-inside-3_42_1483" fill="white">
<path d="M1 95.7856H55V137.186H1V95.7856Z"/>
</mask>
<path d="M55 95.7856H56V94.7856H55V95.7856ZM55 137.186V138.186H56V137.186H55ZM1 95.7856V96.7856H55V95.7856V94.7856H1V95.7856ZM55 95.7856H54V137.186H55H56V95.7856H55ZM55 137.186V136.186H1V137.186V138.186H55V137.186Z" fill="black" fill-opacity="0.05" mask="url(#path-19-inside-3_42_1483)"/>
<rect width="53.55" height="40.5" transform="translate(1 96.2358)" fill="#283C46"/>
<path d="M27.4468 113.611C27.1759 113.611 26.9416 113.645 26.7437 113.712C26.3947 113.837 26.1317 114.069 25.9546 114.408L23.9546 114.314L24.7515 108.056H30.9937V109.947H26.3608L25.9546 112.423C26.2983 112.199 26.5666 112.051 26.7593 111.978C27.0822 111.858 27.4754 111.798 27.939 111.798C28.8765 111.798 29.6942 112.113 30.3921 112.744C31.09 113.374 31.439 114.291 31.439 115.494C31.439 116.541 31.103 117.475 30.4312 118.298C29.7593 119.121 28.7541 119.533 27.4155 119.533C26.3374 119.533 25.452 119.244 24.7593 118.666C24.0666 118.087 23.6812 117.267 23.603 116.205H25.8218C25.9103 116.689 26.0796 117.064 26.3296 117.33C26.5796 117.59 26.9442 117.72 27.4233 117.72C27.9754 117.72 28.3947 117.528 28.6812 117.142C28.9728 116.751 29.1187 116.262 29.1187 115.673C29.1187 115.095 28.9832 114.608 28.7124 114.212C28.4416 113.811 28.0197 113.611 27.4468 113.611Z" fill="white"/>
<rect x="55.5" y="96.2856" width="53" height="40.4" stroke="black" stroke-opacity="0.05"/>
<path d="M82.2832 108.001C83.5332 108.001 84.403 108.327 84.8926 108.978C85.3874 109.624 85.6348 110.291 85.6348 110.978H84.2441C84.1608 110.535 84.028 110.189 83.8457 109.939C83.5072 109.47 82.9941 109.236 82.3066 109.236C81.5202 109.236 80.8952 109.6 80.4316 110.33C79.9681 111.054 79.7103 112.093 79.6582 113.447C79.9811 112.973 80.3874 112.619 80.877 112.384C81.3249 112.176 81.8249 112.072 82.377 112.072C83.3145 112.072 84.1322 112.371 84.8301 112.97C85.528 113.569 85.877 114.462 85.877 115.65C85.877 116.666 85.5462 117.567 84.8848 118.353C84.2233 119.134 83.2806 119.525 82.0566 119.525C81.0098 119.525 80.1061 119.129 79.3457 118.337C78.5853 117.541 78.2051 116.202 78.2051 114.322C78.2051 112.931 78.3743 111.751 78.7129 110.783C79.3639 108.929 80.554 108.001 82.2832 108.001ZM82.1816 118.275C82.9212 118.275 83.4733 118.028 83.8379 117.533C84.2077 117.033 84.3926 116.444 84.3926 115.767C84.3926 115.194 84.2285 114.65 83.9004 114.134C83.5723 113.613 82.9759 113.353 82.1113 113.353C81.5072 113.353 80.9759 113.554 80.5176 113.955C80.0645 114.356 79.8379 114.96 79.8379 115.767C79.8379 116.475 80.0436 117.072 80.4551 117.556C80.8717 118.035 81.4473 118.275 82.1816 118.275Z" fill="#283C46"/>
<rect x="109.5" y="96.2856" width="53" height="40.4" stroke="black" stroke-opacity="0.05"/>
<path d="M140.456 108.236V109.462C140.096 109.811 139.617 110.418 139.018 111.283C138.424 112.147 137.898 113.08 137.44 114.08C136.987 115.054 136.643 115.942 136.409 116.744C136.258 117.259 136.062 118.09 135.823 119.236H134.268C134.622 117.1 135.403 114.975 136.612 112.861C137.325 111.621 138.075 110.551 138.862 109.65H132.674V108.236H140.456Z" fill="#283C46"/>
<rect x="163.5" y="96.2856" width="53" height="40.4" stroke="black" stroke-opacity="0.05"/>
<path d="M189.941 112.736C190.561 112.736 191.045 112.564 191.394 112.22C191.743 111.871 191.917 111.457 191.917 110.978C191.917 110.561 191.751 110.179 191.417 109.83C191.084 109.481 190.576 109.306 189.894 109.306C189.217 109.306 188.727 109.481 188.425 109.83C188.123 110.179 187.972 110.587 187.972 111.056C187.972 111.582 188.167 111.994 188.558 112.291C188.949 112.587 189.41 112.736 189.941 112.736ZM190.027 118.275C190.678 118.275 191.217 118.1 191.644 117.751C192.076 117.397 192.292 116.871 192.292 116.173C192.292 115.449 192.071 114.9 191.628 114.525C191.186 114.15 190.618 113.962 189.925 113.962C189.253 113.962 188.704 114.155 188.277 114.541C187.855 114.921 187.644 115.449 187.644 116.126C187.644 116.71 187.837 117.215 188.222 117.642C188.613 118.064 189.214 118.275 190.027 118.275ZM188.027 113.275C187.636 113.108 187.332 112.913 187.113 112.689C186.701 112.272 186.496 111.731 186.496 111.064C186.496 110.231 186.798 109.514 187.402 108.916C188.006 108.317 188.863 108.017 189.972 108.017C191.045 108.017 191.886 108.301 192.496 108.869C193.105 109.431 193.41 110.09 193.41 110.845C193.41 111.543 193.233 112.108 192.878 112.541C192.681 112.785 192.373 113.025 191.957 113.259C192.42 113.473 192.785 113.718 193.05 113.994C193.545 114.514 193.792 115.192 193.792 116.025C193.792 117.009 193.462 117.845 192.8 118.533C192.139 119.215 191.204 119.556 189.996 119.556C188.907 119.556 187.985 119.262 187.23 118.673C186.48 118.08 186.105 117.22 186.105 116.095C186.105 115.434 186.266 114.863 186.589 114.384C186.912 113.9 187.391 113.53 188.027 113.275Z" fill="#283C46"/>
<rect x="217.5" y="96.2856" width="53" height="40.4" stroke="black" stroke-opacity="0.05"/>
<path d="M241.729 116.533C241.77 117.309 242.07 117.845 242.627 118.142C242.913 118.298 243.236 118.376 243.596 118.376C244.268 118.376 244.84 118.098 245.314 117.541C245.788 116.978 246.124 115.84 246.322 114.126C246.01 114.621 245.622 114.97 245.158 115.173C244.7 115.371 244.205 115.47 243.674 115.47C242.596 115.47 241.742 115.134 241.111 114.462C240.486 113.791 240.174 112.926 240.174 111.869C240.174 110.853 240.484 109.96 241.104 109.189C241.723 108.418 242.637 108.033 243.846 108.033C245.476 108.033 246.601 108.767 247.221 110.236C247.564 111.043 247.736 112.054 247.736 113.267C247.736 114.637 247.531 115.85 247.119 116.908C246.437 118.668 245.281 119.548 243.65 119.548C242.557 119.548 241.726 119.262 241.158 118.689C240.59 118.116 240.307 117.397 240.307 116.533H241.729ZM243.861 114.236C244.419 114.236 244.926 114.054 245.385 113.689C245.848 113.319 246.08 112.676 246.08 111.759C246.08 110.936 245.872 110.324 245.455 109.923C245.044 109.517 244.518 109.314 243.877 109.314C243.189 109.314 242.643 109.546 242.236 110.009C241.835 110.468 241.635 111.082 241.635 111.853C241.635 112.582 241.812 113.163 242.166 113.595C242.52 114.022 243.085 114.236 243.861 114.236Z" fill="#283C46"/>
<rect x="271.5" y="96.2856" width="53" height="40.4" stroke="black" stroke-opacity="0.05"/>
<path d="M290.994 111.809V110.798C291.946 110.706 292.61 110.552 292.986 110.337C293.362 110.117 293.643 109.602 293.829 108.792H294.869V119.236H293.462V111.809H290.994ZM301.966 108.748C303.323 108.748 304.305 109.307 304.91 110.425C305.379 111.289 305.613 112.473 305.613 113.977C305.613 115.403 305.401 116.582 304.976 117.515C304.361 118.853 303.355 119.521 301.958 119.521C300.699 119.521 299.761 118.975 299.146 117.881C298.633 116.968 298.377 115.742 298.377 114.204C298.377 113.013 298.531 111.99 298.838 111.135C299.415 109.543 300.457 108.748 301.966 108.748ZM301.951 118.32C302.635 118.32 303.179 118.018 303.584 117.412C303.99 116.807 304.192 115.679 304.192 114.028C304.192 112.837 304.046 111.858 303.753 111.091C303.46 110.32 302.891 109.934 302.046 109.934C301.27 109.934 300.701 110.3 300.34 111.033C299.983 111.76 299.805 112.834 299.805 114.255C299.805 115.325 299.92 116.184 300.149 116.833C300.501 117.825 301.102 118.32 301.951 118.32Z" fill="#283C46"/>
<mask id="path-37-inside-4_42_1483" fill="white">
<path d="M325 95.7856H379V137.186H325V95.7856Z"/>
</mask>
<path d="M325 95.7856V94.7856H324V95.7856H325ZM325 137.186H324V138.186H325V137.186ZM325 95.7856V96.7856H379V95.7856V94.7856H325V95.7856ZM379 137.186V136.186H325V137.186V138.186H379V137.186ZM325 137.186H326V95.7856H325H324V137.186H325Z" fill="black" fill-opacity="0.05" mask="url(#path-37-inside-4_42_1483)"/>
<path d="M345.353 111.809V110.798C346.305 110.706 346.969 110.552 347.345 110.337C347.721 110.117 348.002 109.602 348.188 108.792H349.228V119.236H347.821V111.809H345.353ZM352.589 111.809V110.798C353.542 110.706 354.206 110.552 354.582 110.337C354.958 110.117 355.238 109.602 355.424 108.792H356.464V119.236H355.058V111.809H352.589Z" fill="#283C46"/>
<rect x="1.5" y="137.686" width="53" height="40.4" stroke="black" stroke-opacity="0.05"/>
<path d="M20.9868 153.209V152.198C21.939 152.105 22.603 151.952 22.979 151.737C23.355 151.517 23.6357 151.002 23.8213 150.191H24.8613V160.636H23.4551V153.209H20.9868ZM28.3696 160.636C28.4185 159.732 28.604 158.946 28.9263 158.277C29.2534 157.608 29.8882 157 30.8306 156.454L32.2368 155.641C32.8667 155.274 33.3086 154.962 33.5625 154.703C33.9629 154.298 34.1631 153.834 34.1631 153.312C34.1631 152.701 33.98 152.218 33.6138 151.861C33.2476 151.5 32.7593 151.319 32.1489 151.319C31.2456 151.319 30.6206 151.661 30.2739 152.345C30.0884 152.711 29.9858 153.219 29.9663 153.868H28.626C28.6406 152.955 28.8091 152.21 29.1313 151.634C29.7026 150.619 30.7109 150.111 32.1562 150.111C33.3574 150.111 34.2339 150.436 34.7856 151.085C35.3423 151.734 35.6206 152.457 35.6206 153.253C35.6206 154.093 35.3252 154.811 34.7344 155.406C34.3926 155.753 33.7798 156.173 32.896 156.666L31.8926 157.223C31.4141 157.486 31.0381 157.738 30.7646 157.977C30.2764 158.402 29.9688 158.873 29.8418 159.391H35.5693V160.636H28.3696Z" fill="#283C46"/>
<rect x="55.5" y="137.686" width="53" height="40.4" stroke="black" stroke-opacity="0.05"/>
<path d="M74.9868 153.209V152.198C75.939 152.105 76.603 151.952 76.979 151.737C77.355 151.517 77.6357 151.002 77.8213 150.191H78.8613V160.636H77.4551V153.209H74.9868ZM85.7974 160.921C84.5571 160.921 83.6562 160.582 83.0947 159.903C82.5381 159.22 82.2598 158.39 82.2598 157.413H83.6367C83.6953 158.092 83.8223 158.585 84.0176 158.893C84.3594 159.444 84.9771 159.72 85.8706 159.72C86.564 159.72 87.1206 159.535 87.5405 159.164C87.9604 158.792 88.1704 158.314 88.1704 157.728C88.1704 157.005 87.9482 156.5 87.5039 156.212C87.0645 155.924 86.4517 155.78 85.6655 155.78C85.5776 155.78 85.4873 155.782 85.3945 155.787C85.3066 155.787 85.2163 155.79 85.1235 155.794V154.63C85.2603 154.645 85.375 154.654 85.4678 154.659C85.5605 154.664 85.6606 154.667 85.7681 154.667C86.2612 154.667 86.6665 154.588 86.9839 154.432C87.5405 154.159 87.8188 153.67 87.8188 152.967C87.8188 152.445 87.6333 152.042 87.2622 151.759C86.8911 151.476 86.459 151.334 85.9658 151.334C85.0869 151.334 84.479 151.627 84.1421 152.213C83.9565 152.535 83.8516 152.994 83.8271 153.59H82.5234C82.5234 152.809 82.6797 152.145 82.9922 151.598C83.5293 150.621 84.4741 150.133 85.8267 150.133C86.896 150.133 87.7236 150.372 88.3096 150.851C88.8955 151.324 89.1885 152.013 89.1885 152.916C89.1885 153.561 89.0151 154.083 88.6685 154.483C88.4536 154.732 88.1753 154.928 87.8335 155.069C88.3853 155.221 88.8149 155.514 89.1226 155.948C89.4351 156.378 89.5913 156.905 89.5913 157.53C89.5913 158.531 89.2617 159.347 88.6025 159.977C87.9434 160.606 87.0083 160.921 85.7974 160.921Z" fill="#283C46"/>
<rect x="109.5" y="137.686" width="53" height="40.4" stroke="black" stroke-opacity="0.05"/>
<path d="M128.987 153.209V152.198C129.939 152.105 130.603 151.952 130.979 151.737C131.355 151.517 131.636 151.002 131.821 150.191H132.861V160.636H131.455V153.209H128.987ZM140.859 156.922V152.169L137.498 156.922H140.859ZM140.881 160.636V158.072H136.282V156.783L141.086 150.118H142.2V156.922H143.745V158.072H142.2V160.636H140.881Z" fill="#283C46"/>
<rect x="163.5" y="137.686" width="53" height="40.4" stroke="black" stroke-opacity="0.05"/>
<path d="M183.177 153.209V152.198C184.129 152.105 184.793 151.952 185.169 151.737C185.545 151.517 185.826 151.002 186.011 150.191H187.051V160.636H185.645V153.209H183.177ZM191.944 157.962C192.032 158.714 192.381 159.234 192.991 159.522C193.304 159.669 193.665 159.742 194.075 159.742C194.856 159.742 195.435 159.493 195.811 158.995C196.187 158.497 196.375 157.945 196.375 157.34C196.375 156.607 196.15 156.041 195.701 155.641C195.257 155.24 194.722 155.04 194.097 155.04C193.643 155.04 193.252 155.128 192.925 155.304C192.603 155.479 192.327 155.724 192.098 156.036L190.955 155.97L191.753 150.323H197.203V151.598H192.742L192.295 154.513C192.54 154.327 192.771 154.188 192.991 154.095C193.382 153.934 193.833 153.854 194.346 153.854C195.308 153.854 196.124 154.164 196.792 154.784C197.461 155.404 197.796 156.19 197.796 157.142C197.796 158.133 197.488 159.007 196.873 159.764C196.263 160.521 195.286 160.899 193.943 160.899C193.089 160.899 192.332 160.66 191.673 160.182C191.019 159.698 190.652 158.958 190.574 157.962H191.944Z" fill="#283C46"/>
<rect x="217.5" y="137.686" width="53" height="40.4" stroke="black" stroke-opacity="0.05"/>
<path d="M237.008 153.209V152.198C237.96 152.105 238.624 151.952 239 151.737C239.376 151.517 239.657 151.002 239.842 150.191H240.882V160.636H239.476V153.209H237.008ZM248.309 150.104C249.481 150.104 250.296 150.409 250.755 151.019C251.219 151.625 251.451 152.25 251.451 152.894H250.147C250.069 152.479 249.945 152.154 249.774 151.92C249.457 151.48 248.976 151.261 248.331 151.261C247.594 151.261 247.008 151.603 246.573 152.286C246.139 152.965 245.897 153.939 245.848 155.208C246.151 154.764 246.532 154.432 246.991 154.212C247.411 154.017 247.879 153.919 248.397 153.919C249.276 153.919 250.042 154.2 250.697 154.762C251.351 155.323 251.678 156.161 251.678 157.274C251.678 158.226 251.368 159.071 250.748 159.808C250.128 160.541 249.244 160.907 248.097 160.907C247.115 160.907 246.268 160.536 245.555 159.793C244.842 159.046 244.486 157.792 244.486 156.029C244.486 154.725 244.645 153.619 244.962 152.711C245.572 150.973 246.688 150.104 248.309 150.104ZM248.214 159.735C248.907 159.735 249.425 159.503 249.767 159.039C250.113 158.57 250.287 158.019 250.287 157.384C250.287 156.847 250.133 156.336 249.825 155.853C249.518 155.365 248.958 155.121 248.148 155.121C247.582 155.121 247.083 155.309 246.654 155.685C246.229 156.061 246.017 156.627 246.017 157.384C246.017 158.048 246.209 158.607 246.595 159.061C246.986 159.51 247.525 159.735 248.214 159.735Z" fill="#283C46"/>
<rect x="271.5" y="137.686" width="53" height="40.4" stroke="black" stroke-opacity="0.05"/>
<path d="M290.994 153.209V152.198C291.946 152.105 292.61 151.952 292.986 151.737C293.362 151.517 293.643 151.002 293.829 150.191H294.869V160.636H293.462V153.209H290.994ZM305.752 150.323V151.473C305.416 151.8 304.966 152.369 304.405 153.18C303.848 153.99 303.355 154.864 302.925 155.802C302.5 156.715 302.178 157.547 301.958 158.299C301.817 158.783 301.634 159.562 301.409 160.636H299.952C300.284 158.634 301.016 156.642 302.149 154.659C302.818 153.497 303.521 152.494 304.258 151.649H298.458V150.323H305.752Z" fill="#283C46"/>
<mask id="path-58-inside-5_42_1483" fill="white">
<path d="M325 137.186H379V178.586H325V137.186Z"/>
</mask>
<path d="M325 137.186V136.186H324V137.186H325ZM325 178.586H324V179.586H325V178.586ZM325 137.186V138.186H379V137.186V136.186H325V137.186ZM379 178.586V177.586H325V178.586V179.586H379V178.586ZM325 178.586H326V137.186H325H324V178.586H325Z" fill="black" fill-opacity="0.05" mask="url(#path-58-inside-5_42_1483)"/>
<path d="M345.296 153.209V152.198C346.249 152.105 346.913 151.952 347.289 151.737C347.665 151.517 347.945 151.002 348.131 150.191H349.171V160.636H347.765V153.209H345.296ZM356.29 154.542C356.871 154.542 357.325 154.381 357.652 154.059C357.979 153.731 358.143 153.343 358.143 152.894C358.143 152.503 357.987 152.145 357.674 151.817C357.362 151.49 356.886 151.327 356.246 151.327C355.611 151.327 355.152 151.49 354.869 151.817C354.586 152.145 354.444 152.528 354.444 152.967C354.444 153.46 354.627 153.846 354.994 154.125C355.36 154.403 355.792 154.542 356.29 154.542ZM356.371 159.735C356.981 159.735 357.486 159.571 357.887 159.244C358.292 158.912 358.495 158.419 358.495 157.765C358.495 157.086 358.287 156.571 357.872 156.219C357.457 155.868 356.925 155.692 356.275 155.692C355.646 155.692 355.13 155.873 354.73 156.234C354.334 156.59 354.137 157.086 354.137 157.721C354.137 158.268 354.317 158.741 354.679 159.142C355.045 159.537 355.609 159.735 356.371 159.735ZM354.496 155.047C354.129 154.891 353.844 154.708 353.639 154.498C353.253 154.107 353.06 153.6 353.06 152.975C353.06 152.193 353.343 151.522 353.91 150.96C354.476 150.399 355.279 150.118 356.319 150.118C357.325 150.118 358.114 150.384 358.685 150.917C359.256 151.444 359.542 152.062 359.542 152.77C359.542 153.424 359.376 153.954 359.044 154.359C358.858 154.588 358.57 154.813 358.18 155.033C358.614 155.233 358.956 155.462 359.205 155.721C359.669 156.209 359.901 156.844 359.901 157.625C359.901 158.548 359.591 159.332 358.971 159.977C358.351 160.616 357.474 160.936 356.341 160.936C355.321 160.936 354.457 160.66 353.749 160.108C353.045 159.552 352.694 158.746 352.694 157.691C352.694 157.071 352.845 156.537 353.148 156.087C353.451 155.633 353.9 155.287 354.496 155.047Z" fill="#283C46"/>
<rect x="1.5" y="179.086" width="53" height="40.4" stroke="black" stroke-opacity="0.05"/>
<path d="M20.9868 194.609V193.599C21.939 193.506 22.603 193.352 22.979 193.137C23.355 192.917 23.6357 192.402 23.8213 191.592H24.8613V202.036H23.4551V194.609H20.9868ZM29.8931 199.502C29.9321 200.229 30.2129 200.732 30.7354 201.011C31.0039 201.157 31.3066 201.23 31.6436 201.23C32.2734 201.23 32.8105 200.969 33.2549 200.447C33.6992 199.919 34.0142 198.853 34.1997 197.246C33.9067 197.71 33.543 198.037 33.1084 198.228C32.6787 198.413 32.2148 198.506 31.7168 198.506C30.7061 198.506 29.9053 198.191 29.3145 197.561C28.7285 196.931 28.4355 196.121 28.4355 195.129C28.4355 194.177 28.7261 193.34 29.3071 192.617C29.8882 191.895 30.7451 191.533 31.8779 191.533C33.4062 191.533 34.4609 192.222 35.042 193.599C35.3643 194.355 35.5254 195.303 35.5254 196.44C35.5254 197.725 35.3325 198.862 34.9468 199.854C34.3071 201.504 33.2231 202.329 31.6948 202.329C30.6694 202.329 29.8906 202.061 29.3584 201.523C28.8262 200.986 28.5601 200.312 28.5601 199.502H29.8931ZM31.8926 197.349C32.415 197.349 32.8911 197.178 33.3208 196.836C33.7554 196.489 33.9727 195.886 33.9727 195.027C33.9727 194.255 33.7773 193.682 33.3867 193.306C33.001 192.925 32.5078 192.734 31.9072 192.734C31.2627 192.734 30.75 192.952 30.3691 193.386C29.9932 193.816 29.8052 194.392 29.8052 195.115C29.8052 195.798 29.9712 196.343 30.3032 196.748C30.6353 197.148 31.165 197.349 31.8926 197.349Z" fill="#283C46"/>
<rect x="55.5" y="179.086" width="53" height="40.4" stroke="black" stroke-opacity="0.05"/>
<path d="M74.02 202.036C74.0688 201.133 74.2544 200.347 74.5767 199.678C74.9038 199.009 75.5386 198.401 76.481 197.854L77.8872 197.041C78.5171 196.675 78.959 196.362 79.2129 196.104C79.6133 195.698 79.8135 195.234 79.8135 194.712C79.8135 194.102 79.6304 193.618 79.2642 193.262C78.8979 192.9 78.4097 192.72 77.7993 192.72C76.896 192.72 76.271 193.062 75.9243 193.745C75.7388 194.111 75.6362 194.619 75.6167 195.269H74.2764C74.291 194.355 74.4595 193.611 74.7817 193.035C75.353 192.019 76.3613 191.511 77.8066 191.511C79.0078 191.511 79.8843 191.836 80.436 192.485C80.9927 193.135 81.271 193.857 81.271 194.653C81.271 195.493 80.9756 196.211 80.3848 196.807C80.043 197.153 79.4302 197.573 78.5464 198.066L77.543 198.623C77.0645 198.887 76.6885 199.138 76.415 199.377C75.9268 199.802 75.6191 200.273 75.4922 200.791H81.2197V202.036H74.02ZM85.9585 191.548C87.3159 191.548 88.2974 192.107 88.9028 193.225C89.3716 194.089 89.606 195.273 89.606 196.777C89.606 198.203 89.3936 199.382 88.9688 200.315C88.3535 201.653 87.3477 202.322 85.9512 202.322C84.6914 202.322 83.7539 201.775 83.1387 200.681C82.626 199.768 82.3696 198.542 82.3696 197.004C82.3696 195.813 82.5234 194.79 82.8311 193.936C83.4072 192.344 84.4497 191.548 85.9585 191.548ZM85.9438 201.121C86.6274 201.121 87.1719 200.818 87.5771 200.212C87.9824 199.607 88.1851 198.479 88.1851 196.829C88.1851 195.637 88.0386 194.658 87.7456 193.892C87.4526 193.12 86.8838 192.734 86.0391 192.734C85.2627 192.734 84.6938 193.101 84.3325 193.833C83.9761 194.561 83.7979 195.635 83.7979 197.056C83.7979 198.125 83.9126 198.984 84.1421 199.634C84.4937 200.625 85.0942 201.121 85.9438 201.121Z" fill="#283C46"/>
<rect x="109.5" y="179.086" width="53" height="40.4" stroke="black" stroke-opacity="0.05"/>
<path d="M128.02 202.036C128.069 201.133 128.254 200.347 128.577 199.678C128.904 199.009 129.539 198.401 130.481 197.854L131.887 197.041C132.517 196.675 132.959 196.362 133.213 196.104C133.613 195.698 133.813 195.234 133.813 194.712C133.813 194.102 133.63 193.618 133.264 193.262C132.898 192.9 132.41 192.72 131.799 192.72C130.896 192.72 130.271 193.062 129.924 193.745C129.739 194.111 129.636 194.619 129.617 195.269H128.276C128.291 194.355 128.459 193.611 128.782 193.035C129.353 192.019 130.361 191.511 131.807 191.511C133.008 191.511 133.884 191.836 134.436 192.485C134.993 193.135 135.271 193.857 135.271 194.653C135.271 195.493 134.976 196.211 134.385 196.807C134.043 197.153 133.43 197.573 132.546 198.066L131.543 198.623C131.064 198.887 130.688 199.138 130.415 199.377C129.927 199.802 129.619 200.273 129.492 200.791H135.22V202.036H128.02ZM137.336 194.609V193.599C138.289 193.506 138.953 193.352 139.329 193.137C139.705 192.917 139.985 192.402 140.171 191.592H141.211V202.036H139.805V194.609H137.336Z" fill="#283C46"/>
<rect x="163.5" y="179.086" width="53" height="40.4" stroke="black" stroke-opacity="0.05"/>
<path d="M182.21 202.036C182.259 201.133 182.444 200.347 182.767 199.678C183.094 199.009 183.729 198.401 184.671 197.854L186.077 197.041C186.707 196.675 187.149 196.362 187.403 196.104C187.803 195.698 188.003 195.234 188.003 194.712C188.003 194.102 187.82 193.618 187.454 193.262C187.088 192.9 186.6 192.72 185.989 192.72C185.086 192.72 184.461 193.062 184.114 193.745C183.929 194.111 183.826 194.619 183.807 195.269H182.466C182.481 194.355 182.649 193.611 182.972 193.035C183.543 192.019 184.551 191.511 185.997 191.511C187.198 191.511 188.074 191.836 188.626 192.485C189.183 193.135 189.461 193.857 189.461 194.653C189.461 195.493 189.166 196.211 188.575 196.807C188.233 197.153 187.62 197.573 186.736 198.066L185.733 198.623C185.254 198.887 184.878 199.138 184.605 199.377C184.117 199.802 183.809 200.273 183.682 200.791H189.41V202.036H182.21ZM190.56 202.036C190.608 201.133 190.794 200.347 191.116 199.678C191.443 199.009 192.078 198.401 193.021 197.854L194.427 197.041C195.057 196.675 195.499 196.362 195.752 196.104C196.153 195.698 196.353 195.234 196.353 194.712C196.353 194.102 196.17 193.618 195.804 193.262C195.438 192.9 194.949 192.72 194.339 192.72C193.436 192.72 192.811 193.062 192.464 193.745C192.278 194.111 192.176 194.619 192.156 195.269H190.816C190.831 194.355 190.999 193.611 191.321 193.035C191.893 192.019 192.901 191.511 194.346 191.511C195.547 191.511 196.424 191.836 196.976 192.485C197.532 193.135 197.811 193.857 197.811 194.653C197.811 195.493 197.515 196.211 196.924 196.807C196.583 197.153 195.97 197.573 195.086 198.066L194.083 198.623C193.604 198.887 193.228 199.138 192.955 199.377C192.466 199.802 192.159 200.273 192.032 200.791H197.759V202.036H190.56Z" fill="#283C46"/>
<rect x="217.5" y="179.086" width="53" height="40.4" stroke="black" stroke-opacity="0.05"/>
<path d="M236.041 202.036C236.09 201.133 236.275 200.347 236.598 199.678C236.925 199.009 237.56 198.401 238.502 197.854L239.908 197.041C240.538 196.675 240.98 196.362 241.234 196.104C241.634 195.698 241.834 195.234 241.834 194.712C241.834 194.102 241.651 193.618 241.285 193.262C240.919 192.9 240.431 192.72 239.82 192.72C238.917 192.72 238.292 193.062 237.945 193.745C237.76 194.111 237.657 194.619 237.638 195.269H236.297C236.312 194.355 236.48 193.611 236.803 193.035C237.374 192.019 238.382 191.511 239.828 191.511C241.029 191.511 241.905 191.836 242.457 192.485C243.014 193.135 243.292 193.857 243.292 194.653C243.292 195.493 242.997 196.211 242.406 196.807C242.064 197.153 241.451 197.573 240.567 198.066L239.564 198.623C239.085 198.887 238.709 199.138 238.436 199.377C237.948 199.802 237.64 200.273 237.513 200.791H243.241V202.036H236.041ZM247.818 202.322C246.578 202.322 245.677 201.982 245.116 201.304C244.559 200.62 244.281 199.79 244.281 198.813H245.658C245.716 199.492 245.843 199.985 246.039 200.293C246.38 200.845 246.998 201.121 247.892 201.121C248.585 201.121 249.142 200.935 249.562 200.564C249.981 200.193 250.191 199.714 250.191 199.128C250.191 198.406 249.969 197.9 249.525 197.612C249.085 197.324 248.473 197.18 247.687 197.18C247.599 197.18 247.508 197.183 247.416 197.188C247.328 197.188 247.237 197.19 247.145 197.195V196.03C247.281 196.045 247.396 196.055 247.489 196.06C247.582 196.064 247.682 196.067 247.789 196.067C248.282 196.067 248.688 195.989 249.005 195.833C249.562 195.559 249.84 195.071 249.84 194.368C249.84 193.845 249.654 193.442 249.283 193.159C248.912 192.876 248.48 192.734 247.987 192.734C247.108 192.734 246.5 193.027 246.163 193.613C245.978 193.936 245.873 194.395 245.848 194.99H244.544C244.544 194.209 244.701 193.545 245.013 192.998C245.55 192.021 246.495 191.533 247.848 191.533C248.917 191.533 249.745 191.772 250.331 192.251C250.917 192.725 251.209 193.413 251.209 194.316C251.209 194.961 251.036 195.483 250.689 195.884C250.475 196.133 250.196 196.328 249.854 196.47C250.406 196.621 250.836 196.914 251.144 197.349C251.456 197.778 251.612 198.306 251.612 198.931C251.612 199.932 251.283 200.747 250.624 201.377C249.964 202.007 249.029 202.322 247.818 202.322Z" fill="#283C46"/>
<rect x="271.5" y="179.086" width="53" height="40.4" stroke="black" stroke-opacity="0.05"/>
<path d="M290.027 202.036C290.076 201.133 290.262 200.347 290.584 199.678C290.911 199.009 291.546 198.401 292.488 197.854L293.895 197.041C294.524 196.675 294.966 196.362 295.22 196.104C295.621 195.698 295.821 195.234 295.821 194.712C295.821 194.102 295.638 193.618 295.271 193.262C294.905 192.9 294.417 192.72 293.807 192.72C292.903 192.72 292.278 193.062 291.932 193.745C291.746 194.111 291.644 194.619 291.624 195.269H290.284C290.298 194.355 290.467 193.611 290.789 193.035C291.36 192.019 292.369 191.511 293.814 191.511C295.015 191.511 295.892 191.836 296.443 192.485C297 193.135 297.278 193.857 297.278 194.653C297.278 195.493 296.983 196.211 296.392 196.807C296.05 197.153 295.438 197.573 294.554 198.066L293.55 198.623C293.072 198.887 292.696 199.138 292.422 199.377C291.934 199.802 291.626 200.273 291.5 200.791H297.227V202.036H290.027ZM302.867 198.323V193.569L299.505 198.323H302.867ZM302.889 202.036V199.473H298.289V198.184L303.094 191.519H304.207V198.323H305.752V199.473H304.207V202.036H302.889Z" fill="#283C46"/>
<mask id="path-79-inside-6_42_1483" fill="white">
<path d="M325 178.586H379V219.986H325V178.586Z"/>
</mask>
<path d="M325 178.586V177.586H324V178.586H325ZM325 219.986H324V220.986H325V219.986ZM325 178.586V179.586H379V178.586V177.586H325V178.586ZM379 219.986V218.986H325V219.986V220.986H379V219.986ZM325 219.986H326V178.586H325H324V219.986H325Z" fill="black" fill-opacity="0.05" mask="url(#path-79-inside-6_42_1483)"/>
<path d="M344.33 202.036C344.378 201.133 344.564 200.347 344.886 199.678C345.213 199.009 345.848 198.401 346.791 197.854L348.197 197.041C348.827 196.675 349.269 196.362 349.522 196.104C349.923 195.698 350.123 195.234 350.123 194.712C350.123 194.102 349.94 193.618 349.574 193.262C349.208 192.9 348.719 192.72 348.109 192.72C347.206 192.72 346.581 193.062 346.234 193.745C346.048 194.111 345.946 194.619 345.926 195.269H344.586C344.601 194.355 344.769 193.611 345.091 193.035C345.663 192.019 346.671 191.511 348.116 191.511C349.317 191.511 350.194 191.836 350.746 192.485C351.302 193.135 351.581 193.857 351.581 194.653C351.581 195.493 351.285 196.211 350.694 196.807C350.353 197.153 349.74 197.573 348.856 198.066L347.853 198.623C347.374 198.887 346.998 199.138 346.725 199.377C346.236 199.802 345.929 200.273 345.802 200.791H351.529V202.036H344.33ZM354.063 199.363C354.151 200.115 354.5 200.635 355.111 200.923C355.423 201.069 355.785 201.143 356.195 201.143C356.976 201.143 357.555 200.894 357.931 200.396C358.307 199.897 358.495 199.346 358.495 198.74C358.495 198.008 358.27 197.441 357.821 197.041C357.376 196.641 356.842 196.44 356.217 196.44C355.763 196.44 355.372 196.528 355.045 196.704C354.723 196.88 354.447 197.124 354.217 197.437L353.075 197.371L353.873 191.724H359.322V192.998H354.862L354.415 195.913C354.659 195.728 354.891 195.588 355.111 195.496C355.501 195.334 355.953 195.254 356.466 195.254C357.428 195.254 358.243 195.564 358.912 196.184C359.581 196.804 359.916 197.59 359.916 198.542C359.916 199.534 359.608 200.408 358.993 201.165C358.382 201.921 357.406 202.3 356.063 202.3C355.208 202.3 354.452 202.061 353.792 201.582C353.138 201.099 352.772 200.359 352.694 199.363H354.063Z" fill="#283C46"/>
<mask id="path-82-inside-7_42_1483" fill="white">
<path d="M1 219.986H55V261.386H1V219.986Z"/>
</mask>
<path d="M55 219.986H56V218.986H55V219.986ZM55 261.386V262.386H56V261.386H55ZM1 219.986V220.986H55V219.986V218.986H1V219.986ZM55 219.986H54V261.386H55H56V219.986H55ZM55 261.386V260.386H1V261.386V262.386H55V261.386Z" fill="black" fill-opacity="0.05" mask="url(#path-82-inside-7_42_1483)"/>
<path d="M19.7456 243.436C19.7944 242.532 19.98 241.746 20.3022 241.077C20.6294 240.408 21.2642 239.8 22.2065 239.253L23.6128 238.44C24.2427 238.074 24.6846 237.762 24.9385 237.503C25.3389 237.098 25.5391 236.634 25.5391 236.111C25.5391 235.501 25.356 235.018 24.9897 234.661C24.6235 234.3 24.1353 234.119 23.5249 234.119C22.6216 234.119 21.9966 234.461 21.6499 235.145C21.4644 235.511 21.3618 236.019 21.3423 236.668H20.002C20.0166 235.755 20.1851 235.01 20.5073 234.434C21.0786 233.418 22.0869 232.911 23.5322 232.911C24.7334 232.911 25.6099 233.235 26.1616 233.885C26.7183 234.534 26.9966 235.257 26.9966 236.053C26.9966 236.893 26.7012 237.61 26.1104 238.206C25.7686 238.553 25.1558 238.973 24.272 239.466L23.2686 240.022C22.79 240.286 22.4141 240.538 22.1406 240.777C21.6523 241.202 21.3447 241.673 21.2178 242.19H26.9453V243.436H19.7456ZM32.0137 232.903C33.1855 232.903 34.001 233.208 34.46 233.819C34.9238 234.424 35.1558 235.049 35.1558 235.694H33.8521C33.7739 235.279 33.6494 234.954 33.4785 234.72C33.1611 234.28 32.6802 234.061 32.0356 234.061C31.2983 234.061 30.7124 234.402 30.2778 235.086C29.8433 235.765 29.6016 236.739 29.5527 238.008C29.8555 237.564 30.2363 237.232 30.6953 237.012C31.1152 236.817 31.584 236.719 32.1016 236.719C32.9805 236.719 33.7471 237 34.4014 237.562C35.0557 238.123 35.3828 238.96 35.3828 240.074C35.3828 241.026 35.0728 241.871 34.4526 242.608C33.8325 243.34 32.9487 243.707 31.8013 243.707C30.8198 243.707 29.9727 243.335 29.2598 242.593C28.5469 241.846 28.1904 240.591 28.1904 238.829C28.1904 237.525 28.3491 236.419 28.6665 235.511C29.2769 233.772 30.3926 232.903 32.0137 232.903ZM31.9185 242.535C32.6118 242.535 33.1294 242.303 33.4712 241.839C33.8179 241.37 33.9912 240.818 33.9912 240.184C33.9912 239.646 33.8374 239.136 33.5298 238.653C33.2222 238.165 32.6631 237.92 31.8525 237.92C31.2861 237.92 30.7881 238.108 30.3584 238.484C29.9336 238.86 29.7212 239.427 29.7212 240.184C29.7212 240.848 29.9141 241.407 30.2998 241.861C30.6904 242.31 31.23 242.535 31.9185 242.535Z" fill="#283C46"/>
<rect x="55.5" y="220.486" width="53" height="40.4" stroke="black" stroke-opacity="0.05"/>
<path d="M73.957 243.436C74.0059 242.532 74.1914 241.746 74.5137 241.077C74.8408 240.408 75.4756 239.8 76.418 239.253L77.8242 238.44C78.4541 238.074 78.896 237.762 79.1499 237.503C79.5503 237.098 79.7505 236.634 79.7505 236.111C79.7505 235.501 79.5674 235.018 79.2012 234.661C78.835 234.3 78.3467 234.119 77.7363 234.119C76.833 234.119 76.208 234.461 75.8613 235.145C75.6758 235.511 75.5732 236.019 75.5537 236.668H74.2134C74.228 235.755 74.3965 235.01 74.7188 234.434C75.29 233.418 76.2983 232.911 77.7437 232.911C78.9448 232.911 79.8213 233.235 80.373 233.885C80.9297 234.534 81.208 235.257 81.208 236.053C81.208 236.893 80.9126 237.61 80.3218 238.206C79.98 238.553 79.3672 238.973 78.4834 239.466L77.48 240.022C77.0015 240.286 76.6255 240.538 76.3521 240.777C75.8638 241.202 75.5562 241.673 75.4292 242.19H81.1567V243.436H73.957ZM89.6821 233.123V234.273C89.3452 234.6 88.896 235.169 88.3345 235.979C87.7778 236.79 87.2847 237.664 86.855 238.602C86.4302 239.515 86.1079 240.347 85.8882 241.099C85.7466 241.583 85.5635 242.361 85.3389 243.436H83.8813C84.2134 241.434 84.9458 239.441 86.0786 237.459C86.7476 236.297 87.4507 235.293 88.188 234.449H82.3872V233.123H89.6821Z" fill="#283C46"/>
<rect x="109.5" y="220.486" width="53" height="40.4" stroke="black" stroke-opacity="0.05"/>
<path d="M127.957 243.436C128.006 242.532 128.191 241.746 128.514 241.077C128.841 240.408 129.476 239.8 130.418 239.253L131.824 238.44C132.454 238.074 132.896 237.762 133.15 237.503C133.55 237.098 133.75 236.634 133.75 236.111C133.75 235.501 133.567 235.018 133.201 234.661C132.835 234.3 132.347 234.119 131.736 234.119C130.833 234.119 130.208 234.461 129.861 235.145C129.676 235.511 129.573 236.019 129.554 236.668H128.213C128.228 235.755 128.396 235.01 128.719 234.434C129.29 233.418 130.298 232.911 131.744 232.911C132.945 232.911 133.821 233.235 134.373 233.885C134.93 234.534 135.208 235.257 135.208 236.053C135.208 236.893 134.913 237.61 134.322 238.206C133.98 238.553 133.367 238.973 132.483 239.466L131.48 240.022C131.001 240.286 130.625 240.538 130.352 240.777C129.864 241.202 129.556 241.673 129.429 242.19H135.157V243.436H127.957ZM139.917 237.342C140.499 237.342 140.953 237.181 141.28 236.858C141.607 236.531 141.771 236.143 141.771 235.694C141.771 235.303 141.614 234.944 141.302 234.617C140.989 234.29 140.513 234.126 139.874 234.126C139.239 234.126 138.78 234.29 138.497 234.617C138.213 234.944 138.072 235.328 138.072 235.767C138.072 236.26 138.255 236.646 138.621 236.924C138.987 237.203 139.419 237.342 139.917 237.342ZM139.998 242.535C140.608 242.535 141.114 242.371 141.514 242.044C141.919 241.712 142.122 241.219 142.122 240.564C142.122 239.886 141.915 239.371 141.5 239.019C141.084 238.667 140.552 238.492 139.903 238.492C139.273 238.492 138.758 238.672 138.357 239.034C137.962 239.39 137.764 239.886 137.764 240.521C137.764 241.067 137.945 241.541 138.306 241.941C138.672 242.337 139.236 242.535 139.998 242.535ZM138.123 237.847C137.757 237.691 137.471 237.508 137.266 237.298C136.88 236.907 136.688 236.399 136.688 235.774C136.688 234.993 136.971 234.322 137.537 233.76C138.104 233.199 138.907 232.918 139.947 232.918C140.953 232.918 141.741 233.184 142.312 233.716C142.884 234.244 143.169 234.861 143.169 235.569C143.169 236.224 143.003 236.753 142.671 237.159C142.486 237.388 142.198 237.613 141.807 237.833C142.242 238.033 142.583 238.262 142.833 238.521C143.296 239.009 143.528 239.644 143.528 240.425C143.528 241.348 143.218 242.132 142.598 242.776C141.978 243.416 141.102 243.736 139.969 243.736C138.948 243.736 138.084 243.46 137.376 242.908C136.673 242.352 136.321 241.546 136.321 240.491C136.321 239.871 136.473 239.336 136.775 238.887C137.078 238.433 137.527 238.086 138.123 237.847Z" fill="#283C46"/>
<rect x="163.5" y="220.486" width="53" height="40.4" stroke="black" stroke-opacity="0.05"/>
<path d="M181.971 243.436C182.02 242.532 182.205 241.746 182.527 241.077C182.854 240.408 183.489 239.8 184.432 239.253L185.838 238.44C186.468 238.074 186.91 237.762 187.164 237.503C187.564 237.098 187.764 236.634 187.764 236.111C187.764 235.501 187.581 235.018 187.215 234.661C186.849 234.3 186.36 234.119 185.75 234.119C184.847 234.119 184.222 234.461 183.875 235.145C183.689 235.511 183.587 236.019 183.567 236.668H182.227C182.242 235.755 182.41 235.01 182.732 234.434C183.304 233.418 184.312 232.911 185.757 232.911C186.958 232.911 187.835 233.235 188.387 233.885C188.943 234.534 189.222 235.257 189.222 236.053C189.222 236.893 188.926 237.61 188.335 238.206C187.994 238.553 187.381 238.973 186.497 239.466L185.494 240.022C185.015 240.286 184.639 240.538 184.366 240.777C183.877 241.202 183.57 241.673 183.443 242.19H189.17V243.436H181.971ZM191.844 240.901C191.883 241.629 192.164 242.132 192.686 242.41C192.955 242.557 193.257 242.63 193.594 242.63C194.224 242.63 194.761 242.369 195.206 241.846C195.65 241.319 195.965 240.252 196.15 238.646C195.857 239.109 195.494 239.437 195.059 239.627C194.629 239.812 194.166 239.905 193.667 239.905C192.657 239.905 191.856 239.59 191.265 238.96C190.679 238.331 190.386 237.52 190.386 236.529C190.386 235.577 190.677 234.739 191.258 234.017C191.839 233.294 192.696 232.933 193.829 232.933C195.357 232.933 196.412 233.621 196.993 234.998C197.315 235.755 197.476 236.702 197.476 237.84C197.476 239.124 197.283 240.262 196.897 241.253C196.258 242.903 195.174 243.729 193.646 243.729C192.62 243.729 191.841 243.46 191.309 242.923C190.777 242.386 190.511 241.712 190.511 240.901H191.844ZM193.843 238.748C194.366 238.748 194.842 238.577 195.271 238.235C195.706 237.889 195.923 237.286 195.923 236.426C195.923 235.655 195.728 235.081 195.337 234.705C194.952 234.324 194.458 234.134 193.858 234.134C193.213 234.134 192.701 234.351 192.32 234.786C191.944 235.215 191.756 235.792 191.756 236.514C191.756 237.198 191.922 237.742 192.254 238.147C192.586 238.548 193.116 238.748 193.843 238.748Z" fill="#283C46"/>
<rect x="217.5" y="220.486" width="53" height="40.4" stroke="black" stroke-opacity="0.05"/>
<path d="M239.279 243.721C238.039 243.721 237.138 243.382 236.577 242.703C236.02 242.02 235.742 241.189 235.742 240.213H237.119C237.177 240.892 237.304 241.385 237.5 241.692C237.841 242.244 238.459 242.52 239.353 242.52C240.046 242.52 240.603 242.334 241.022 241.963C241.442 241.592 241.652 241.114 241.652 240.528C241.652 239.805 241.43 239.3 240.986 239.012C240.546 238.724 239.934 238.58 239.147 238.58C239.06 238.58 238.969 238.582 238.876 238.587C238.789 238.587 238.698 238.589 238.605 238.594V237.43C238.742 237.444 238.857 237.454 238.95 237.459C239.042 237.464 239.143 237.466 239.25 237.466C239.743 237.466 240.148 237.388 240.466 237.232C241.022 236.958 241.301 236.47 241.301 235.767C241.301 235.245 241.115 234.842 240.744 234.559C240.373 234.275 239.941 234.134 239.448 234.134C238.569 234.134 237.961 234.427 237.624 235.013C237.438 235.335 237.333 235.794 237.309 236.39H236.005C236.005 235.608 236.162 234.944 236.474 234.397C237.011 233.421 237.956 232.933 239.309 232.933C240.378 232.933 241.206 233.172 241.792 233.65C242.377 234.124 242.67 234.812 242.67 235.716C242.67 236.36 242.497 236.883 242.15 237.283C241.936 237.532 241.657 237.728 241.315 237.869C241.867 238.021 242.297 238.313 242.604 238.748C242.917 239.178 243.073 239.705 243.073 240.33C243.073 241.331 242.744 242.146 242.084 242.776C241.425 243.406 240.49 243.721 239.279 243.721ZM247.79 232.947C249.147 232.947 250.129 233.506 250.734 234.625C251.203 235.489 251.438 236.673 251.438 238.177C251.438 239.603 251.225 240.782 250.8 241.714C250.185 243.052 249.179 243.721 247.783 243.721C246.523 243.721 245.585 243.174 244.97 242.081C244.458 241.167 244.201 239.942 244.201 238.404C244.201 237.212 244.355 236.189 244.663 235.335C245.239 233.743 246.281 232.947 247.79 232.947ZM247.775 242.52C248.459 242.52 249.003 242.217 249.409 241.612C249.814 241.006 250.017 239.878 250.017 238.228C250.017 237.037 249.87 236.058 249.577 235.291C249.284 234.52 248.715 234.134 247.871 234.134C247.094 234.134 246.525 234.5 246.164 235.232C245.808 235.96 245.629 237.034 245.629 238.455C245.629 239.524 245.744 240.384 245.974 241.033C246.325 242.024 246.926 242.52 247.775 242.52Z" fill="#283C46"/>
<rect x="271.5" y="220.486" width="53" height="40.4" stroke="black" stroke-opacity="0.05"/>
<path d="M293.279 243.721C292.039 243.721 291.138 243.382 290.577 242.703C290.02 242.02 289.742 241.189 289.742 240.213H291.119C291.177 240.892 291.304 241.385 291.5 241.692C291.841 242.244 292.459 242.52 293.353 242.52C294.046 242.52 294.603 242.334 295.022 241.963C295.442 241.592 295.652 241.114 295.652 240.528C295.652 239.805 295.43 239.3 294.986 239.012C294.546 238.724 293.934 238.58 293.147 238.58C293.06 238.58 292.969 238.582 292.876 238.587C292.789 238.587 292.698 238.589 292.605 238.594V237.43C292.742 237.444 292.857 237.454 292.95 237.459C293.042 237.464 293.143 237.466 293.25 237.466C293.743 237.466 294.148 237.388 294.466 237.232C295.022 236.958 295.301 236.47 295.301 235.767C295.301 235.245 295.115 234.842 294.744 234.559C294.373 234.275 293.941 234.134 293.448 234.134C292.569 234.134 291.961 234.427 291.624 235.013C291.438 235.335 291.333 235.794 291.309 236.39H290.005C290.005 235.608 290.162 234.944 290.474 234.397C291.011 233.421 291.956 232.933 293.309 232.933C294.378 232.933 295.206 233.172 295.792 233.65C296.377 234.124 296.67 234.812 296.67 235.716C296.67 236.36 296.497 236.883 296.15 237.283C295.936 237.532 295.657 237.728 295.315 237.869C295.867 238.021 296.297 238.313 296.604 238.748C296.917 239.178 297.073 239.705 297.073 240.33C297.073 241.331 296.744 242.146 296.084 242.776C295.425 243.406 294.49 243.721 293.279 243.721ZM299.168 236.009V234.998C300.12 234.905 300.784 234.751 301.16 234.537C301.536 234.317 301.817 233.802 302.002 232.991H303.042V243.436H301.636V236.009H299.168Z" fill="#283C46"/>
<mask id="path-101-inside-8_42_1483" fill="white">
<path d="M325 219.986H379V261.386H325V219.986Z"/>
</mask>
<path d="M325 219.986V218.986H324V219.986H325ZM325 261.386H324V262.386H325V261.386ZM325 219.986V220.986H379V219.986V218.986H325V219.986ZM379 261.386V260.386H325V261.386V262.386H379V261.386ZM325 261.386H326V219.986H325H324V261.386H325Z" fill="black" fill-opacity="0.05" mask="url(#path-101-inside-8_42_1483)"/>
<path d="M0.100098 5.83594C0.100098 3.07451 2.33867 0.835938 5.1001 0.835938H374.9C377.662 0.835938 379.9 3.07451 379.9 5.83594V54.8359H0.100098V5.83594Z" fill="#283C46"/>
<path d="M344.486 43.5215C344.509 43.9284 344.605 44.2588 344.774 44.5127C345.097 44.988 345.665 45.2256 346.479 45.2256C346.843 45.2256 347.175 45.1735 347.475 45.0693C348.054 44.8675 348.344 44.5062 348.344 43.9854C348.344 43.5947 348.222 43.3164 347.978 43.1504C347.73 42.9876 347.343 42.846 346.815 42.7256L345.844 42.5059C345.209 42.3626 344.76 42.2048 344.496 42.0322C344.04 41.7327 343.812 41.2852 343.812 40.6895C343.812 40.0449 344.035 39.516 344.481 39.1025C344.927 38.6891 345.559 38.4824 346.376 38.4824C347.128 38.4824 347.766 38.6647 348.29 39.0293C348.817 39.3906 349.081 39.9701 349.081 40.7676H348.168C348.119 40.3835 348.015 40.0889 347.855 39.8838C347.559 39.5094 347.056 39.3223 346.347 39.3223C345.774 39.3223 345.362 39.4427 345.111 39.6836C344.861 39.9245 344.735 40.2044 344.735 40.5234C344.735 40.875 344.882 41.1322 345.175 41.2949C345.367 41.3991 345.801 41.5293 346.479 41.6855L347.484 41.915C347.969 42.0257 348.344 42.1771 348.607 42.3691C349.063 42.7044 349.291 43.1911 349.291 43.8291C349.291 44.6234 349.001 45.1914 348.422 45.5332C347.846 45.875 347.175 46.0459 346.41 46.0459C345.518 46.0459 344.82 45.818 344.315 45.3623C343.811 44.9098 343.563 44.2962 343.573 43.5215H344.486ZM354.203 42.8965L353.114 39.7275L351.957 42.8965H354.203ZM352.606 38.6631H353.705L356.308 45.8359H355.243L354.516 43.6875H351.679L350.902 45.8359H349.906L352.606 38.6631ZM361.669 38.6631V39.5176H359.252V45.8359H358.266V39.5176H355.849V38.6631H361.669Z" fill="white" fill-opacity="0.8"/>
<path d="M291.228 38.6631H296.204V39.542H292.2V41.7197H295.72V42.5742H292.2V45.8359H291.228V38.6631ZM300.583 41.9492C301.039 41.9492 301.399 41.8581 301.663 41.6758C301.93 41.4935 302.063 41.1647 302.063 40.6895C302.063 40.1784 301.877 39.8301 301.506 39.6445C301.308 39.5469 301.042 39.498 300.71 39.498H298.337V41.9492H300.583ZM297.366 38.6631H300.686C301.233 38.6631 301.684 38.7428 302.039 38.9023C302.712 39.2083 303.049 39.7731 303.049 40.5967C303.049 41.0264 302.96 41.3779 302.781 41.6514C302.605 41.9248 302.358 42.1445 302.039 42.3105C302.319 42.4245 302.528 42.5742 302.668 42.7598C302.812 42.9453 302.891 43.2464 302.908 43.6631L302.942 44.625C302.952 44.8984 302.974 45.1019 303.01 45.2354C303.069 45.4632 303.173 45.6097 303.323 45.6748V45.8359H302.131C302.099 45.7741 302.073 45.6943 302.053 45.5967C302.034 45.499 302.017 45.3102 302.004 45.0303L301.946 43.834C301.923 43.3652 301.749 43.0511 301.423 42.8916C301.238 42.8037 300.946 42.7598 300.549 42.7598H298.337V45.8359H297.366V38.6631ZM304.695 38.6631H305.676V45.8359H304.695V38.6631Z" fill="white" fill-opacity="0.8"/>
<path d="M239.356 38.9458V39.8857H236.698V46.8359H235.613V39.8857H232.954V38.9458H239.356ZM240.366 38.9458H241.446V42.2061H245.549V38.9458H246.629V46.8359H245.549V43.146H241.446V46.8359H240.366V38.9458ZM249.449 38.9458V43.8228C249.449 44.3957 249.556 44.8719 249.771 45.2515C250.09 45.8244 250.627 46.1108 251.382 46.1108C252.288 46.1108 252.904 45.8011 253.23 45.1816C253.405 44.8451 253.493 44.3921 253.493 43.8228V38.9458H254.578V43.377C254.578 44.3473 254.447 45.0939 254.186 45.6167C253.706 46.5692 252.8 47.0454 251.468 47.0454C250.136 47.0454 249.232 46.5692 248.756 45.6167C248.494 45.0939 248.364 44.3473 248.364 43.377V38.9458H249.449Z" fill="white" fill-opacity="0.8"/>
<path d="M179.197 38.6631L180.55 44.498L182.171 38.6631H183.226L184.847 44.498L186.199 38.6631H187.264L185.379 45.8359H184.358L182.703 39.8887L181.038 45.8359H180.018L178.143 38.6631H179.197ZM188.26 38.6631H193.489V39.542H189.207V41.7197H193.167V42.5498H189.207V44.9814H193.562V45.8359H188.26V38.6631ZM197.591 45.0059C197.92 45.0059 198.19 44.9717 198.401 44.9033C198.779 44.7764 199.088 44.5322 199.329 44.1709C199.521 43.8812 199.66 43.5101 199.744 43.0576C199.793 42.7874 199.817 42.5368 199.817 42.3057C199.817 41.417 199.64 40.7269 199.285 40.2354C198.934 39.7438 198.366 39.498 197.581 39.498H195.857V45.0059H197.591ZM194.881 38.6631H197.786C198.772 38.6631 199.537 39.013 200.081 39.7129C200.566 40.3444 200.809 41.1533 200.809 42.1396C200.809 42.9014 200.665 43.5898 200.379 44.2051C199.874 45.2923 199.007 45.8359 197.776 45.8359H194.881V38.6631Z" fill="white" fill-opacity="0.8"/>
<path d="M131.853 38.6631V39.5176H129.436V45.8359H128.449V39.5176H126.032V38.6631H131.853ZM133.801 38.6631V43.0967C133.801 43.6175 133.898 44.0505 134.094 44.3955C134.383 44.9163 134.872 45.1768 135.559 45.1768C136.382 45.1768 136.942 44.8952 137.238 44.332C137.398 44.026 137.478 43.6143 137.478 43.0967V38.6631H138.464V42.6914C138.464 43.5736 138.345 44.2523 138.107 44.7275C137.671 45.5934 136.848 46.0264 135.637 46.0264C134.426 46.0264 133.604 45.5934 133.171 44.7275C132.933 44.2523 132.814 43.5736 132.814 42.6914V38.6631H133.801ZM140.065 38.6631H145.295V39.542H141.013V41.7197H144.973V42.5498H141.013V44.9814H145.368V45.8359H140.065V38.6631Z" fill="white" fill-opacity="0.8"/>
<path d="M69.0786 38.9458H70.6094L72.876 45.6167L75.1265 38.9458H76.6411V46.8359H75.626V42.1792C75.626 42.0181 75.6296 41.7513 75.6367 41.3789C75.6439 41.0065 75.6475 40.6073 75.6475 40.1812L73.397 46.8359H72.3389L70.0723 40.1812V40.4229C70.0723 40.6162 70.0758 40.9116 70.083 41.3091C70.0938 41.703 70.0991 41.993 70.0991 42.1792V46.8359H69.0786V38.9458ZM81.6738 38.731C83.0667 38.731 84.098 39.1785 84.7676 40.0737C85.2904 40.772 85.5518 41.6654 85.5518 42.7539C85.5518 43.932 85.2528 44.9113 84.6548 45.6919C83.953 46.6086 82.9521 47.0669 81.6523 47.0669C80.4385 47.0669 79.4842 46.6659 78.7896 45.8638C78.1701 45.0903 77.8604 44.1128 77.8604 42.9312C77.8604 41.8641 78.1253 40.951 78.6553 40.1919C79.3356 39.2179 80.3418 38.731 81.6738 38.731ZM81.7812 46.1108C82.723 46.1108 83.4033 45.7743 83.8223 45.1011C84.2448 44.4243 84.4561 43.6473 84.4561 42.77C84.4561 41.8426 84.2126 41.096 83.7256 40.5303C83.2422 39.9645 82.5798 39.6816 81.7383 39.6816C80.9219 39.6816 80.2559 39.9627 79.7402 40.5249C79.2246 41.0835 78.9668 41.9089 78.9668 43.001C78.9668 43.8747 79.187 44.6123 79.6274 45.2139C80.0715 45.8118 80.7894 46.1108 81.7812 46.1108ZM86.8301 38.9458H88.0923L92.0776 45.3374V38.9458H93.0928V46.8359H91.895L87.8506 40.4497V46.8359H86.8301V38.9458Z" fill="white" fill-opacity="0.8"/>
<path d="M18.4023 43.5215C18.4251 43.9284 18.5212 44.2588 18.6904 44.5127C19.0127 44.988 19.5807 45.2256 20.3945 45.2256C20.7591 45.2256 21.0911 45.1735 21.3906 45.0693C21.9701 44.8675 22.2598 44.5062 22.2598 43.9854C22.2598 43.5947 22.1377 43.3164 21.8936 43.1504C21.6462 42.9876 21.2588 42.846 20.7314 42.7256L19.7598 42.5059C19.125 42.3626 18.6758 42.2048 18.4121 42.0322C17.9564 41.7327 17.7285 41.2852 17.7285 40.6895C17.7285 40.0449 17.9515 39.516 18.3975 39.1025C18.8434 38.6891 19.4749 38.4824 20.292 38.4824C21.0439 38.4824 21.682 38.6647 22.2061 39.0293C22.7334 39.3906 22.9971 39.9701 22.9971 40.7676H22.084C22.0352 40.3835 21.931 40.0889 21.7715 39.8838C21.4753 39.5094 20.9723 39.3223 20.2627 39.3223C19.6898 39.3223 19.278 39.4427 19.0273 39.6836C18.7767 39.9245 18.6514 40.2044 18.6514 40.5234C18.6514 40.875 18.7979 41.1322 19.0908 41.2949C19.2829 41.3991 19.7174 41.5293 20.3945 41.6855L21.4004 41.915C21.8854 42.0257 22.2598 42.1771 22.5234 42.3691C22.9792 42.7044 23.207 43.1911 23.207 43.8291C23.207 44.6234 22.9173 45.1914 22.3379 45.5332C21.7617 45.875 21.0911 46.0459 20.3262 46.0459C19.4342 46.0459 18.736 45.818 18.2314 45.3623C17.7269 44.9098 17.4795 44.2962 17.4893 43.5215H18.4023ZM25.4922 38.6631V43.0967C25.4922 43.6175 25.5898 44.0505 25.7852 44.3955C26.0749 44.9163 26.5632 45.1768 27.25 45.1768C28.0736 45.1768 28.6335 44.8952 28.9297 44.332C29.0892 44.026 29.1689 43.6143 29.1689 43.0967V38.6631H30.1553V42.6914C30.1553 43.5736 30.0365 44.2523 29.7988 44.7275C29.3626 45.5934 28.5391 46.0264 27.3281 46.0264C26.1172 46.0264 25.2952 45.5934 24.8623 44.7275C24.6247 44.2523 24.5059 43.5736 24.5059 42.6914V38.6631H25.4922ZM31.6641 38.6631H32.8115L36.4346 44.4736V38.6631H37.3574V45.8359H36.2686L32.5918 40.0303V45.8359H31.6641V38.6631Z" fill="white" fill-opacity="0.8"/>
<path d="M355.9 32.3359C353.824 32.3359 351.794 31.7201 350.067 30.5664C348.34 29.4126 346.994 27.7727 346.2 25.8541C345.405 23.9355 345.197 21.8243 345.602 19.7875C346.007 17.7507 347.007 15.8798 348.476 14.4113C349.944 12.9429 351.815 11.9428 353.852 11.5377C355.889 11.1326 358 11.3405 359.919 12.1352C361.837 12.9299 363.477 14.2757 364.631 16.0025C365.785 17.7292 366.4 19.7592 366.4 21.8359C366.4 24.6207 365.294 27.2914 363.325 29.2606C361.356 31.2297 358.685 32.3359 355.9 32.3359ZM360.03 21.2245L355.208 16.4101C355.044 16.2458 354.821 16.1534 354.589 16.1533C354.357 16.1531 354.134 16.2452 353.97 16.4094C353.805 16.5735 353.713 16.7962 353.713 17.0284C353.713 17.2607 353.805 17.4835 353.969 17.6478L358.172 21.8434L353.969 26.039C353.888 26.1204 353.823 26.217 353.779 26.3233C353.735 26.4295 353.713 26.5434 353.713 26.6584C353.713 26.7734 353.735 26.8873 353.78 26.9935C353.824 27.0997 353.888 27.1962 353.97 27.2775C354.051 27.3588 354.147 27.4232 354.254 27.4672C354.36 27.5111 354.474 27.5337 354.589 27.5336C354.704 27.5336 354.818 27.5108 354.924 27.4668C355.03 27.4227 355.127 27.3581 355.208 27.2768L360.03 22.4623C360.112 22.3811 360.176 22.2846 360.22 22.1784C360.264 22.0722 360.287 21.9584 360.287 21.8434C360.287 21.7285 360.264 21.6146 360.22 21.5084C360.176 21.4022 360.112 21.3057 360.03 21.2245Z" fill="white"/>
<path d="M171.461 25.186H169.499V15.1099H172.562L174.394 23.0327L176.212 15.1099H179.24V25.186H177.278V18.3706C177.278 18.1746 177.281 17.9012 177.285 17.5503C177.29 17.1948 177.292 16.9214 177.292 16.73L175.385 25.186H173.341L171.447 16.73C171.447 16.9214 171.45 17.1948 171.454 17.5503C171.459 17.9012 171.461 18.1746 171.461 18.3706V25.186ZM181.318 18.5415C181.833 17.8853 182.717 17.5571 183.971 17.5571C184.786 17.5571 185.511 17.7189 186.145 18.0425C186.778 18.366 187.095 18.9767 187.095 19.8745V23.2925C187.095 23.5295 187.099 23.8166 187.108 24.1538C187.122 24.409 187.161 24.5822 187.225 24.6733C187.288 24.7645 187.384 24.8397 187.512 24.8989V25.186H185.393C185.333 25.0356 185.292 24.8944 185.27 24.7622C185.247 24.63 185.229 24.4797 185.215 24.311C184.946 24.6027 184.636 24.8511 184.285 25.0562C183.866 25.2977 183.392 25.4185 182.863 25.4185C182.189 25.4185 181.631 25.2271 181.188 24.8442C180.751 24.4569 180.532 23.91 180.532 23.2036C180.532 22.2876 180.885 21.6245 181.592 21.2144C181.979 20.991 182.549 20.8315 183.301 20.7358L183.964 20.6538C184.324 20.6082 184.581 20.5513 184.736 20.4829C185.014 20.3644 185.153 20.1799 185.153 19.9292C185.153 19.6239 185.046 19.4142 184.832 19.3003C184.622 19.1818 184.312 19.1226 183.902 19.1226C183.442 19.1226 183.116 19.2365 182.925 19.4644C182.788 19.633 182.697 19.8608 182.651 20.1479H180.771C180.812 19.4963 180.995 18.9608 181.318 18.5415ZM182.768 23.7778C182.95 23.9282 183.173 24.0034 183.438 24.0034C183.857 24.0034 184.242 23.8804 184.593 23.6343C184.948 23.3882 185.133 22.9393 185.146 22.2876V21.563C185.023 21.6405 184.898 21.7043 184.771 21.7544C184.647 21.8 184.477 21.8433 184.258 21.8843L183.82 21.9663C183.41 22.0392 183.116 22.1281 182.938 22.2329C182.638 22.4106 182.487 22.6864 182.487 23.0601C182.487 23.3927 182.581 23.632 182.768 23.7778ZM192.577 19.5327C191.793 19.5327 191.267 19.7879 190.998 20.2983C190.848 20.5854 190.772 21.0275 190.772 21.6245V25.186H188.811V17.7349H190.67V19.0337C190.971 18.5369 191.233 18.1974 191.456 18.0151C191.821 17.7098 192.295 17.5571 192.878 17.5571C192.914 17.5571 192.944 17.5594 192.967 17.564C192.994 17.564 193.051 17.5662 193.138 17.5708V19.5669C193.015 19.5532 192.905 19.5441 192.81 19.5396C192.714 19.535 192.636 19.5327 192.577 19.5327ZM200.732 20.4077H198.736C198.7 20.1297 198.606 19.8791 198.456 19.6558C198.237 19.355 197.898 19.2046 197.438 19.2046C196.781 19.2046 196.332 19.5304 196.091 20.1821C195.963 20.5285 195.899 20.9888 195.899 21.563C195.899 22.1099 195.963 22.5496 196.091 22.8823C196.323 23.5021 196.761 23.812 197.403 23.812C197.859 23.812 198.183 23.689 198.374 23.4429C198.565 23.1968 198.682 22.8778 198.723 22.4858H200.712C200.666 23.0783 200.452 23.6388 200.069 24.1675C199.459 25.0197 198.554 25.4458 197.355 25.4458C196.157 25.4458 195.275 25.0903 194.71 24.3794C194.145 23.6685 193.862 22.7456 193.862 21.6108C193.862 20.3302 194.174 19.3345 194.799 18.6235C195.423 17.9126 196.285 17.5571 197.383 17.5571C198.317 17.5571 199.08 17.7668 199.673 18.186C200.27 18.6053 200.623 19.3459 200.732 20.4077ZM208.812 20.811V25.186H206.823V20.6538C206.823 20.2528 206.755 19.9292 206.618 19.6831C206.44 19.3368 206.103 19.1636 205.606 19.1636C205.091 19.1636 204.7 19.3368 204.431 19.6831C204.166 20.0249 204.034 20.5148 204.034 21.1528V25.186H202.093V15.144H204.034V18.7056C204.317 18.2726 204.643 17.9718 205.012 17.8032C205.385 17.63 205.777 17.5435 206.188 17.5435C206.648 17.5435 207.065 17.6232 207.438 17.7827C207.817 17.9422 208.127 18.186 208.368 18.5142C208.573 18.7922 208.699 19.0793 208.744 19.3755C208.79 19.6672 208.812 20.1457 208.812 20.811Z" fill="white"/>
<path d="M24.1001 11.3359C26.1768 11.3359 28.2069 11.9518 29.9336 13.1055C31.6603 14.2593 33.0061 15.8991 33.8008 17.8178C34.5956 19.7364 34.8035 21.8476 34.3983 23.8844C33.9932 25.9212 32.9932 27.7921 31.5247 29.2606C30.0563 30.729 28.1853 31.729 26.1485 32.1342C24.1117 32.5393 22.0005 32.3314 20.0819 31.5367C18.1633 30.742 16.5234 29.3961 15.3697 27.6694C14.2159 25.9427 13.6001 23.9126 13.6001 21.8359C13.6001 19.0512 14.7063 16.3804 16.6755 14.4113C18.6446 12.4422 21.3153 11.3359 24.1001 11.3359ZM19.9701 22.4473L24.7926 27.2618C24.9567 27.4261 25.1794 27.5185 25.4116 27.5187C25.6439 27.5188 25.8667 27.4267 26.031 27.2626C26.1953 27.0984 26.2877 26.8757 26.2879 26.6435C26.288 26.4112 26.1959 26.1885 26.0317 26.0241L21.829 21.8285L26.0317 17.6329C26.1959 17.4686 26.288 17.2458 26.2879 17.0135C26.2877 16.7812 26.1954 16.5586 26.031 16.3944C25.8667 16.2303 25.6439 16.1382 25.4116 16.1383C25.1794 16.1384 24.9567 16.2308 24.7926 16.3951L19.9701 21.2097C19.8887 21.2909 19.8241 21.3873 19.7801 21.4935C19.736 21.5997 19.7134 21.7135 19.7134 21.8285C19.7134 21.9435 19.736 22.0573 19.7801 22.1635C19.8241 22.2697 19.8887 22.3661 19.9701 22.4473Z" fill="white"/>
</svg>
