<svg viewBox="0 0 17 20" fill="none" xmlns="http://www.w3.org/2000/svg">
<path opacity="0.67" d="M4.16991 9.3401L7.53991 3.5001C6.37991 2.2101 5.98991 0.970101 6.33991 0.3601C7.41991 -1.5099 17.5899 4.3601 16.5099 6.2401C16.1899 6.7901 14.9099 7.0901 13.1999 6.7501L9.81991 12.6001C11.0399 13.7901 11.4799 14.9401 10.9499 15.8601C10.4499 16.7301 7.99991 15.9301 5.61991 14.6401V14.6501L3.65991 18.0401C3.29991 18.6601 2.09991 20.1501 1.78991 19.9701C1.47991 19.7901 2.16991 18.0101 2.52991 17.3801L4.48991 13.9901C4.48991 13.9901 4.48991 13.9801 4.49991 13.9801C2.18991 12.5701 0.279911 10.8401 0.779911 9.9801C1.30991 9.0701 2.52991 8.8801 4.16991 9.3401Z" fill="currentColor"/>
</svg>
